<svg width="181" height="34" viewBox="0 0 181 34" fill="none" xmlns="http://www.w3.org/2000/svg">
    <g clip-path="url(#clip0_1107_7695)">
        <path
            d="M24.1993 16.334C21.9604 16.1276 19.6716 16.2652 17.4328 16.7905C16.3134 17.0656 15.219 17.4409 14.1559 17.9099C13.0927 18.3789 12.0859 18.973 11.1103 19.6234C9.22173 20.9492 7.552 22.5939 6.13867 24.42H9.67825C10.4975 23.3131 11.423 22.2875 12.4611 21.3682C13.2553 20.699 14.0933 20.0674 15.0001 19.5421C15.9069 19.0168 16.8637 18.5603 17.858 18.1913C19.8592 17.4784 22.0042 17.1032 24.1805 17.0594C26.3505 17.0219 28.5581 17.2595 30.6843 17.8724C28.6394 17.0281 26.4381 16.5403 24.2055 16.3215"
            fill="#EE691E" />
        <path
            d="M9.27762 19.367L16.1379 7.69765L20.4342 15.0144C19.4899 15.0895 18.5518 15.2208 17.6325 15.4147L16.1316 12.8632L13.9491 16.5779C13.8428 16.6216 13.7302 16.6654 13.6239 16.7154C12.6046 17.1657 11.5414 17.7598 10.3533 18.554C9.99054 18.8104 9.62783 19.0856 9.27762 19.3607M16.1316 30.3859C8.75232 30.3859 2.7488 24.3824 2.7488 17.0031C2.7488 9.62378 8.75857 3.62651 16.1379 3.62651C21.6599 3.62651 26.4127 6.99098 28.4514 11.775H31.2593C29.0892 5.50886 23.1357 1.00623 16.1379 1.00623C7.30147 1.00623 0.134766 8.17292 0.134766 17.0094C0.134766 25.8458 7.30147 33.0125 16.1379 33.0125C19.2335 33.0125 22.1227 32.1307 24.5678 30.6111L23.2421 28.3472C21.1783 29.6418 18.7457 30.3984 16.1379 30.3984M28.4764 22.1811C27.9823 23.3506 27.3257 24.445 26.5377 25.4205L21.7537 17.272C20.8344 17.3971 19.9339 17.5909 19.0521 17.8411L24.6366 27.3529L25.9749 29.6355C28.4013 27.7406 30.2587 25.1641 31.278 22.1874H28.4764V22.1811Z"
            fill="#680FD2" />
        <path
            d="M58.7725 24.3262C57.6593 24.3262 56.615 24.1073 55.6394 23.657C54.6638 23.213 53.8071 22.6064 53.0754 21.8435C52.3437 21.0805 51.7684 20.1862 51.3494 19.1606C50.9304 18.135 50.7178 17.0344 50.7178 15.8587C50.7178 14.683 50.9304 13.6011 51.3494 12.5693C51.7684 11.5374 52.3437 10.6369 53.0754 9.87394C53.8071 9.11099 54.6576 8.51064 55.6394 8.06038C56.615 7.61637 57.6593 7.39124 58.7725 7.39124C59.8856 7.39124 60.9925 7.62887 61.9994 8.10415C63.0062 8.57943 63.888 9.23607 64.6322 10.0615L63.2001 11.3248C62.6435 10.6869 61.9806 10.1929 61.2114 9.83642C60.4422 9.47996 59.623 9.2986 58.7662 9.2986C57.9095 9.2986 57.1278 9.46745 56.3836 9.8114C55.6394 10.1554 54.9828 10.6244 54.4325 11.2185C53.8759 11.8126 53.4319 12.5067 53.1067 13.3072C52.7815 14.1014 52.6189 14.9519 52.6189 15.8587C52.6189 16.7655 52.7815 17.616 53.1067 18.4102C53.4319 19.2044 53.8759 19.8986 54.4325 20.4989C54.989 21.093 55.6394 21.562 56.3836 21.906C57.1278 22.2499 57.9282 22.4188 58.7662 22.4188C59.6042 22.4188 60.436 22.2374 61.2114 21.881C61.9806 21.5245 62.6435 21.0242 63.2001 20.3926L64.6322 21.6558C63.8817 22.4813 63.0062 23.1317 61.9994 23.6132C60.9925 24.0948 59.9107 24.3262 58.7725 24.3262Z"
            fill="white" fill-opacity="1" />
        <path
            d="M70.4983 24.2074C70.0355 24.2074 69.5977 24.1261 69.185 23.9572C68.7722 23.7884 68.4158 23.5632 68.1094 23.2756C67.8092 22.9879 67.5715 22.6502 67.3964 22.2625C67.2213 21.8747 67.1338 21.4557 67.1338 21.0117V7.52258H69.0412V21.0117C69.0412 21.3744 69.1787 21.6809 69.4601 21.931C69.7353 22.1749 70.0855 22.3 70.4983 22.3C70.6734 22.3 70.861 22.2625 71.0673 22.1812L71.7803 23.9697C71.5739 24.051 71.3613 24.1073 71.1486 24.1511C70.936 24.1886 70.7171 24.2074 70.492 24.2074"
            fill="white" fill-opacity="1" />
        <path
            d="M78.1523 11.9752C78.9653 11.9752 79.7282 12.1378 80.4411 12.463C81.154 12.7882 81.7794 13.2322 82.311 13.7888C82.8425 14.3454 83.2678 14.9957 83.5742 15.7399C83.8806 16.4841 84.037 17.2908 84.037 18.1476C84.037 19.0043 83.8806 19.8111 83.5742 20.5552C83.2615 21.3057 82.8425 21.9561 82.311 22.5126C81.7794 23.0692 81.154 23.507 80.4411 23.8384C79.7282 24.1636 78.9653 24.3262 78.1523 24.3262C77.3393 24.3262 76.5764 24.1636 75.8634 23.8384C75.1505 23.5132 74.5251 23.0692 73.9936 22.5126C73.462 21.9561 73.043 21.3057 72.7303 20.5552C72.4239 19.8111 72.2676 19.0043 72.2676 18.1476C72.2676 17.2908 72.4239 16.4841 72.7303 15.7399C73.043 14.9957 73.462 14.3454 73.9936 13.7888C74.5251 13.2322 75.1505 12.7944 75.8634 12.463C76.5764 12.1378 77.3393 11.9752 78.1523 11.9752ZM78.1523 22.4126C78.6901 22.4126 79.2029 22.3 79.6907 22.0811C80.1722 21.856 80.6037 21.5496 80.9664 21.1619C81.3291 20.7741 81.6168 20.3176 81.8232 19.8048C82.0295 19.292 82.1359 18.7354 82.1359 18.1476C82.1359 17.5597 82.0295 17.0094 81.8232 16.4904C81.6168 15.9713 81.3291 15.521 80.9664 15.1333C80.6037 14.7456 80.1785 14.4392 79.6907 14.214C79.2091 13.9889 78.6901 13.8826 78.1523 13.8826C77.6145 13.8826 77.0766 13.9952 76.6014 14.214C76.1261 14.4392 75.7008 14.7393 75.3381 15.1333C74.9692 15.521 74.6877 15.9776 74.4814 16.4904C74.275 17.0094 74.1687 17.5597 74.1687 18.1476C74.1687 18.7354 74.275 19.2858 74.4814 19.8048C74.6877 20.3239 74.9754 20.7741 75.3381 21.1619C75.7008 21.5496 76.1261 21.856 76.6014 22.0811C77.0766 22.3 77.5957 22.4126 78.1523 22.4126Z"
            fill="white" fill-opacity="1" />
        <path
            d="M94.1683 12.6942H96.0757V19.7984C96.0757 20.4362 95.9443 21.0303 95.6817 21.5869C95.419 22.1435 95.0626 22.625 94.6185 23.0315C94.1745 23.438 93.6555 23.7569 93.0676 23.9883C92.4798 24.2197 91.8544 24.3323 91.1853 24.3323C90.5161 24.3323 89.8845 24.2135 89.2904 23.9758C88.6963 23.7382 88.1773 23.4192 87.727 23.0128C87.283 22.6063 86.9328 22.1247 86.6764 21.5744C86.42 21.0178 86.2949 20.43 86.2949 19.8109V12.7067H88.2023V19.8109C88.2023 20.1736 88.2836 20.5175 88.4399 20.8365C88.5963 21.1554 88.8151 21.4306 89.0841 21.6682C89.353 21.9059 89.6656 22.0935 90.0284 22.2311C90.3848 22.3686 90.7725 22.4312 91.1853 22.4312C91.598 22.4312 91.9858 22.3624 92.3547 22.2185C92.7174 22.0747 93.0364 21.8871 93.3053 21.6495C93.5742 21.4118 93.7868 21.1304 93.9369 20.8177C94.087 20.4988 94.162 20.1673 94.162 19.8171V12.713L94.1683 12.6942Z"
            fill="white" fill-opacity="1" />
        <path
            d="M104.23 24.3262C103.417 24.3262 102.654 24.1636 101.942 23.8384C101.229 23.5132 100.603 23.0692 100.072 22.5189C99.5401 21.9623 99.1212 21.3119 98.8085 20.5615C98.502 19.8173 98.3457 19.0106 98.3457 18.1538C98.3457 17.2971 98.502 16.4966 98.8085 15.7462C99.1212 14.9957 99.5401 14.3453 100.072 13.795C100.603 13.2384 101.229 12.8007 101.942 12.4692C102.654 12.144 103.417 11.9814 104.23 11.9814C104.993 11.9814 105.719 12.1253 106.4 12.4129C107.082 12.7006 107.689 13.0946 108.214 13.6074V7.52258H110.121V24.2074H108.214V22.7065C107.689 23.213 107.082 23.6133 106.4 23.9009C105.719 24.1886 104.993 24.3262 104.23 24.3262ZM104.23 13.8826C103.674 13.8826 103.155 13.9951 102.679 14.214C102.204 14.4391 101.779 14.7456 101.416 15.1333C101.054 15.521 100.766 15.9775 100.559 16.4903C100.353 17.0094 100.247 17.5597 100.247 18.1476C100.247 18.7354 100.353 19.2857 100.559 19.8048C100.766 20.3238 101.054 20.7741 101.416 21.1618C101.779 21.5496 102.204 21.856 102.679 22.0811C103.155 22.3062 103.674 22.4126 104.23 22.4126C104.787 22.4126 105.281 22.3 105.769 22.0811C106.25 21.856 106.682 21.5558 107.045 21.1618C107.407 20.7741 107.695 20.3176 107.901 19.8048C108.108 19.2857 108.214 18.7354 108.214 18.1476C108.214 17.5597 108.108 17.0094 107.901 16.4903C107.695 15.9713 107.407 15.521 107.045 15.1333C106.682 14.7456 106.25 14.4391 105.769 14.214C105.287 13.9951 104.768 13.8826 104.23 13.8826Z"
            fill="white" fill-opacity="1" />
        <path
            d="M115.293 20.6303L113.936 24.2074H111.91L118.176 7.52258H120.203L126.469 24.2074H124.443L123.085 20.6303H115.293ZM119.202 10.2367L116.006 18.7229H122.373L119.202 10.2367Z"
            fill="white" fill-opacity="1" />
        <path
            d="M133.147 11.9752C133.817 11.9752 134.448 12.094 135.042 12.3317C135.636 12.5693 136.155 12.8945 136.606 13.2947C137.05 13.7012 137.4 14.1828 137.656 14.7393C137.913 15.2959 138.038 15.8838 138.038 16.5029V24.2011H136.13V16.5029C136.13 16.1402 136.049 15.7962 135.893 15.4773C135.736 15.1583 135.518 14.8832 135.249 14.6455C134.98 14.4079 134.667 14.2203 134.311 14.0827C133.954 13.9451 133.566 13.8826 133.154 13.8826C132.741 13.8826 132.353 13.9514 131.997 14.0827C131.64 14.2203 131.328 14.4079 131.059 14.6455C130.79 14.8832 130.571 15.1646 130.415 15.4773C130.258 15.7962 130.177 16.1339 130.177 16.5029V24.2011H128.27V12.6944H130.177V12.907C130.59 12.6068 131.052 12.3755 131.559 12.2191C132.066 12.0628 132.597 11.9815 133.154 11.9815"
            fill="white" fill-opacity="1" />
        <path
            d="M142.516 21.2745C141.846 20.8117 141.309 20.2239 140.908 19.4984C140.502 18.773 140.302 17.985 140.302 17.1283C140.302 16.4154 140.446 15.7462 140.733 15.1271C141.021 14.508 141.402 13.9639 141.89 13.4949C142.372 13.0259 142.947 12.6569 143.604 12.388C144.26 12.1191 144.967 11.9815 145.711 11.9815C146.793 11.9815 147.775 12.2629 148.669 12.8133L149.739 11.7189L151.096 13.0759L150.07 14.1015C150.752 14.977 151.096 15.9839 151.096 17.1283C151.096 17.985 150.895 18.7793 150.501 19.4984C150.101 20.2239 149.563 20.8117 148.882 21.2745C149.551 21.7185 150.089 22.2751 150.489 22.9442C150.895 23.6133 151.096 24.3513 151.096 25.158C151.096 25.8084 150.958 26.4275 150.677 27.0153C150.401 27.6032 150.02 28.116 149.532 28.5537C149.044 28.9915 148.475 29.3354 147.819 29.5918C147.162 29.8482 146.455 29.9733 145.711 29.9733C144.967 29.9733 144.242 29.8482 143.591 29.5918C142.941 29.3354 142.365 28.9915 141.878 28.5537C141.384 28.116 141.002 27.6094 140.721 27.0278C140.446 26.4463 140.302 25.8271 140.302 25.158H142.209C142.209 25.5395 142.303 25.9084 142.484 26.2649C142.666 26.6214 142.916 26.934 143.222 27.1967C143.529 27.4593 143.904 27.672 144.329 27.8283C144.761 27.9847 145.217 28.066 145.711 28.066C146.205 28.066 146.662 27.9847 147.081 27.8283C147.5 27.672 147.869 27.4593 148.175 27.1967C148.488 26.934 148.732 26.6214 148.913 26.2649C149.094 25.9084 149.188 25.5395 149.188 25.158C149.188 24.7765 149.094 24.4138 148.913 24.0636C148.732 23.7134 148.482 23.407 148.175 23.1443C147.869 22.8817 147.5 22.6753 147.081 22.5127C146.662 22.3564 146.205 22.2751 145.711 22.2751C145.217 22.2751 144.723 22.3564 144.279 22.5127C143.835 22.669 143.447 22.9129 143.11 23.2256L141.821 21.8185C142.047 21.6122 142.272 21.4308 142.516 21.2682M145.711 13.8764C145.236 13.8764 144.779 13.9577 144.354 14.1265C143.923 14.2954 143.554 14.5268 143.235 14.8207C142.916 15.1146 142.666 15.4586 142.484 15.8588C142.303 16.259 142.209 16.678 142.209 17.122C142.209 17.566 142.303 17.985 142.484 18.3853C142.666 18.7855 142.916 19.1295 143.235 19.4234C143.554 19.7173 143.929 19.9487 144.354 20.1175C144.786 20.2864 145.236 20.3677 145.711 20.3677C146.186 20.3677 146.643 20.2864 147.068 20.1175C147.5 19.9487 147.869 19.7173 148.175 19.4234C148.488 19.1295 148.732 18.7855 148.913 18.3853C149.094 17.985 149.188 17.566 149.188 17.122C149.188 16.678 149.094 16.234 148.901 15.8338C148.713 15.4335 148.457 15.0959 148.138 14.8082C147.819 14.5205 147.45 14.2954 147.031 14.1265C146.612 13.9577 146.168 13.8764 145.711 13.8764Z"
            fill="white" fill-opacity="1" />
        <path
            d="M156.649 24.2074C156.186 24.2074 155.748 24.1261 155.335 23.9572C154.923 23.7884 154.566 23.5632 154.26 23.2756C153.96 22.9879 153.722 22.6502 153.547 22.2625C153.372 21.8747 153.284 21.4557 153.284 21.0117V7.52258H155.192V21.0117C155.192 21.3744 155.329 21.6809 155.611 21.931C155.886 22.1749 156.236 22.3 156.649 22.3C156.824 22.3 157.011 22.2625 157.218 22.1812L157.931 23.9697C157.724 24.051 157.512 24.1073 157.299 24.1511C157.086 24.1886 156.868 24.2074 156.642 24.2074"
            fill="white" fill-opacity="1" />
        <path
            d="M164.297 24.3261C163.484 24.3261 162.721 24.1635 162.008 23.8383C161.295 23.5131 160.67 23.0691 160.138 22.5187C159.607 21.9622 159.188 21.3118 158.875 20.5614C158.568 19.8172 158.412 19.0104 158.412 18.1537C158.412 17.2969 158.568 16.4965 158.875 15.746C159.188 14.9956 159.607 14.3452 160.138 13.7949C160.67 13.2383 161.295 12.8006 162.008 12.4691C162.721 12.1439 163.484 11.9813 164.297 11.9813C165.11 11.9813 165.873 12.1439 166.586 12.4691C167.299 12.7943 167.924 13.2383 168.456 13.7949C168.987 14.3515 169.412 15.0018 169.719 15.746C170.025 16.4902 170.182 17.2969 170.182 18.1537H160.313C160.313 18.7415 160.42 19.2919 160.626 19.8109C160.832 20.33 161.12 20.7802 161.483 21.168C161.845 21.5557 162.271 21.8621 162.746 22.0872C163.221 22.3124 163.74 22.4187 164.297 22.4187C164.853 22.4187 165.379 22.3061 165.873 22.0747C166.367 21.8434 166.805 21.5244 167.186 21.1117L168.593 22.3749C168.036 22.994 167.392 23.4756 166.661 23.8195C165.929 24.1635 165.141 24.3323 164.303 24.3323M164.303 13.8887C163.521 13.8887 162.815 14.1013 162.183 14.5328C161.545 14.9643 161.07 15.5334 160.751 16.2463H167.88C167.549 15.5334 167.061 14.9581 166.423 14.5328C165.785 14.1013 165.079 13.8887 164.303 13.8887Z"
            fill="white" fill-opacity="1" />
        <path
            d="M180.106 20.7991C180.106 21.2932 179.987 21.7497 179.75 22.1812C179.512 22.6064 179.193 22.9817 178.787 23.3006C178.38 23.6195 177.905 23.8697 177.355 24.051C176.804 24.2324 176.223 24.3262 175.604 24.3262C175.172 24.3262 174.747 24.2762 174.315 24.1824C173.884 24.0886 173.484 23.9385 173.115 23.7384C172.739 23.5382 172.402 23.3006 172.102 23.0129C171.801 22.7253 171.558 22.3938 171.389 22.0124L173.127 21.2244C173.252 21.5121 173.534 21.781 173.959 22.0311C174.39 22.2875 174.935 22.4126 175.604 22.4126C175.966 22.4126 176.31 22.3688 176.629 22.2813C176.948 22.1937 177.223 22.0749 177.455 21.9248C177.686 21.7747 177.867 21.5996 178.005 21.3995C178.136 21.1994 178.205 20.9993 178.205 20.7929C178.205 20.3176 177.943 19.9236 177.417 19.6109C176.892 19.2983 176.185 18.9668 175.297 18.5978C174.884 18.4227 174.472 18.2476 174.059 18.0725C173.646 17.8974 173.265 17.6911 172.915 17.4534C171.989 16.8343 171.533 16.0464 171.533 15.0958C171.533 14.6518 171.639 14.239 171.851 13.8576C172.064 13.4761 172.358 13.1447 172.721 12.8695C173.083 12.5943 173.521 12.3755 174.021 12.2129C174.522 12.0565 175.047 11.9752 175.61 11.9752C176.467 11.9752 177.242 12.1566 177.936 12.513C178.63 12.8695 179.124 13.351 179.425 13.9576L177.73 14.8144C177.605 14.5767 177.355 14.3579 176.992 14.1703C176.623 13.9826 176.166 13.8826 175.61 13.8826C174.991 13.8826 174.472 14.0139 174.059 14.2766C173.646 14.5392 173.44 14.8144 173.44 15.1021C173.44 15.4335 173.678 15.7337 174.14 15.9963C174.609 16.259 175.222 16.5404 175.985 16.8406C176.448 17.0157 176.904 17.2033 177.355 17.4159C177.811 17.6223 178.224 17.8599 178.605 18.1288C179.606 18.8417 180.106 19.736 180.106 20.7991Z"
            fill="white" fill-opacity="1" />
    </g>
    <defs>
        <clipPath id="clip0_1107_7695">
            <rect width="181" height="33" fill="white" transform="translate(0 0.134888)" />
        </clipPath>
    </defs>
</svg>