<svg width="426" height="72" viewBox="0 0 426 72" fill="none" xmlns="http://www.w3.org/2000/svg">
<path d="M50.5028 14.2498C50.0616 14.1611 49.9302 13.9651 49.8504 13.5637C48.7379 8.1822 43.288 4.56032 37.8944 5.67115C37.2748 5.79717 36.6739 5.9932 36.0778 6.20323C35.0826 6.55329 33.9654 6.26858 33.2894 5.46112C29.6515 1.12047 24.8588 -0.723136 18.977 0.891772C12.5461 2.65137 9.35874 7.25806 8.79075 13.755C8.77198 13.9884 8.60768 14.1891 8.37767 14.2451H8.37297C4.24683 15.2953 1.57117 17.825 0.421108 21.9136C0.322531 22.2683 0.256813 22.637 0.186401 22.9964C0.153542 23.1598 0.134766 23.3278 0.134766 23.4912V25.1994C0.134766 25.2648 0.144154 25.3254 0.167625 25.3861C0.195789 25.4608 0.223954 25.5355 0.233342 25.6148C0.815415 30.3802 5.16219 34.5528 10.8092 34.5341C12.0626 34.5295 13.3112 34.5248 14.5598 34.5248C15.9728 34.5201 17.1135 35.659 17.1135 37.0592V64.0412C17.1135 67.7845 20.1646 70.8136 23.9293 70.8136C25.807 70.8136 27.511 70.0575 28.7455 68.8299C29.9754 67.6071 30.7405 65.9128 30.7405 64.0412V60.2187H40.8564V55.4299H38.9834V57.1942H37.6691V53.2876H35.7914V57.1942H34.4818V50.5759H32.6041V57.1942H30.7405V37.0499C30.7405 35.6496 31.8812 34.5108 33.2941 34.5108C38.2465 34.5155 43.1988 34.5201 48.1464 34.5155C48.6627 34.5155 49.1791 34.4828 49.6908 34.4221C54.6665 33.8154 58.6096 29.6147 58.788 24.7373C58.9758 19.7106 55.4552 15.2393 50.5028 14.2498ZM24.6428 58.5197C24.6428 59.0378 24.2251 59.4532 23.704 59.4532C23.183 59.4532 22.7699 59.0378 22.7699 58.5197V27.5844C22.7699 27.071 23.1877 26.651 23.704 26.651C23.9669 26.651 24.2016 26.7583 24.3706 26.9263C24.5396 27.0944 24.6428 27.3277 24.6428 27.5844V58.5197ZM23.5444 25.5028C21.2678 25.5028 19.1507 24.3453 17.9255 22.4597L16.8975 22.8237C16.6675 22.9077 16.4516 22.665 16.5595 22.4457L17.6674 20.2147C17.7331 20.0793 17.8927 20.0233 18.0288 20.084L20.3055 21.1201C20.5308 21.2228 20.5167 21.5449 20.282 21.6242L19.3009 21.9743C20.2867 23.3045 21.8639 24.1026 23.5444 24.1026C26.4501 24.1026 28.8206 21.7502 28.8206 18.8565C28.8206 18.4691 29.1351 18.1564 29.5247 18.1564C29.9144 18.1564 30.2289 18.4691 30.2289 18.8565C30.2289 22.5203 27.2293 25.5028 23.5444 25.5028ZM21.7841 18.4131C21.4743 18.119 21.3147 17.7316 21.3147 17.2556C21.3147 16.7561 21.4884 16.3501 21.8264 16.0467C22.169 15.748 22.6385 15.58 23.2346 15.5473V14.9545H23.7791V15.5473C24.1453 15.58 24.4739 15.6733 24.7696 15.8227C25.0653 15.9767 25.3423 16.1914 25.6005 16.4714L24.9057 17.1995C24.7414 16.9708 24.5677 16.7935 24.3847 16.6768C24.2016 16.5601 23.9998 16.4901 23.7791 16.4714V18.1704C24.5067 18.3524 25.0231 18.5904 25.3329 18.8938C25.638 19.1972 25.7929 19.6032 25.7929 20.1167C25.7929 20.6301 25.6145 21.0735 25.2531 21.3908C24.8869 21.7129 24.3988 21.8809 23.7791 21.8949V22.763H23.2346V21.8949C22.8215 21.8529 22.4554 21.7456 22.1362 21.5635C21.817 21.3815 21.5353 21.1295 21.2912 20.8028L22.0047 20.1026C22.2113 20.364 22.4131 20.5647 22.6103 20.7001C22.8121 20.8308 23.0187 20.9101 23.2346 20.9288V19.0618C22.5774 18.9218 22.0939 18.7024 21.7841 18.4131ZM30.7405 15.0292L29.6327 17.2602C29.567 17.3956 29.4074 17.4516 29.2713 17.3909L26.9946 16.3548C26.7693 16.2521 26.7834 15.9347 27.0181 15.8507L27.6893 15.6126C26.6989 14.3571 25.178 13.6103 23.5444 13.6103C20.6341 13.6103 18.2635 15.9627 18.2635 18.8565C18.2635 19.2439 17.949 19.5566 17.5594 19.5566C17.1698 19.5566 16.8553 19.2439 16.8553 18.8565C16.8553 15.1926 19.8548 12.2101 23.5444 12.2101C25.7741 12.2101 27.8349 13.3116 29.0694 15.1226L30.4026 14.6512C30.6326 14.5718 30.8485 14.8099 30.7405 15.0292Z" fill="url(#paint0_linear_1107_7671)"/>
<path d="M23.2347 16.4293V17.9882C22.9014 17.9229 22.662 17.8295 22.5165 17.7035C22.371 17.5775 22.2959 17.4048 22.2959 17.1808C22.2959 16.9567 22.3757 16.77 22.5353 16.644C22.6949 16.518 22.9296 16.4433 23.2347 16.4293Z" fill="url(#paint1_linear_1107_7671)"/>
<path d="M24.7463 20.1725C24.7463 20.4339 24.6665 20.6299 24.5022 20.7606C24.3379 20.8913 24.0985 20.9613 23.7793 20.9613V19.2344C24.1267 19.3091 24.3708 19.4164 24.521 19.5658C24.6712 19.7104 24.7463 19.9111 24.7463 20.1725Z" fill="url(#paint2_linear_1107_7671)"/>
<path d="M71.6935 50.717V50.5966C71.6935 49.9378 71.152 49.3994 70.4895 49.3994H61.413C60.7504 49.3994 60.209 49.9378 60.209 50.5966V64.332C60.209 64.9907 60.7504 65.5291 61.413 65.5291H61.6054C62.2679 65.5291 62.8094 64.9907 62.8094 64.332V59.2246H70.0478C70.7103 59.2246 71.2518 58.6862 71.2518 58.0274C71.2518 57.3686 70.7103 56.8303 70.0478 56.8303H62.8094V51.9141H70.4895C71.152 51.9141 71.6935 51.3758 71.6935 50.717Z" fill="white"/>
<path d="M76.054 49.4702C75.6479 49.2931 75.1706 49.2931 74.7574 49.4702C74.2017 49.7111 73.9238 50.1503 73.9238 50.802C73.9238 51.5883 74.3157 52.07 75.0993 52.2754C75.2917 52.325 75.5054 52.325 75.6978 52.2754C76.4957 52.07 76.8947 51.5883 76.8947 50.802C76.8947 50.1503 76.6168 49.7111 76.054 49.4702ZM74.2017 55.286V64.339C74.2017 64.9978 74.736 65.5291 75.3986 65.5291C76.0611 65.5291 76.5955 64.9978 76.5955 64.339V55.286C76.5955 54.6272 76.0611 54.0959 75.3986 54.0959C74.736 54.0959 74.2017 54.6272 74.2017 55.286Z" fill="white"/>
<path d="M89.5546 55.4206C88.6284 54.4501 87.4529 53.9684 86.0138 53.9684C84.5746 53.9684 83.2424 54.5776 82.1595 55.7889L82.1096 55.1726C82.0597 54.5847 81.5681 54.1313 80.9768 54.1313C80.3499 54.1313 79.8369 54.6413 79.8369 55.2647V64.4027C79.8369 65.0261 80.3499 65.5361 80.9768 65.5361H81.0979C81.7249 65.5361 82.2378 65.0261 82.2378 64.4027V59.5787C82.2378 58.6295 82.5371 57.8219 83.1426 57.1561C83.7482 56.4973 84.5105 56.1643 85.4367 56.1643C86.4127 56.1643 87.175 56.4619 87.7165 57.0569C88.2579 57.6448 88.5287 58.4453 88.5287 59.4441V64.4027C88.5287 65.0261 89.0416 65.5361 89.6686 65.5361H89.811C90.438 65.5361 90.951 65.0261 90.951 64.4027V59.4229C90.951 57.7299 90.4879 56.3981 89.5688 55.4276L89.5546 55.4206Z" fill="white"/>
<path d="M106.147 58.6862C105.798 58.0628 105.292 57.567 104.623 57.2057C103.96 56.8444 103.283 56.5753 102.607 56.3911C101.923 56.2069 101.103 56.044 100.149 55.9023C98.8591 55.7181 97.8831 55.4702 97.2063 55.1443C96.5366 54.8185 96.2017 54.3085 96.2017 53.6001C96.2017 52.8421 96.5508 52.2471 97.2419 51.8079C97.9401 51.3687 98.8449 51.1491 99.9634 51.1491C100.811 51.1704 101.595 51.3333 102.314 51.645C102.742 51.8362 103.105 52.0629 103.419 52.3321C103.811 52.6721 104.395 52.6721 104.822 52.3888L104.844 52.3746C105.478 51.9496 105.577 51.0358 105.007 50.5257C103.818 49.449 102.108 48.9177 99.885 48.9177C99.1085 48.9177 98.3675 49.0098 97.6551 49.1869C96.9427 49.364 96.2801 49.6261 95.6603 49.9803C95.0405 50.3345 94.5417 50.8233 94.1713 51.4325C93.8008 52.0487 93.6156 52.7571 93.6156 53.5576C93.6156 54.2164 93.7367 54.8114 93.9789 55.3214C94.214 55.8385 94.5204 56.2565 94.8837 56.5823C95.2471 56.9011 95.7244 57.1845 96.3086 57.4111C96.8999 57.6449 97.4556 57.822 97.9899 57.9424C98.5243 58.0628 99.1655 58.1762 99.9064 58.2683C101.203 58.4383 102.222 58.7145 102.956 59.1112C103.697 59.5008 104.06 60.103 104.06 60.9176C104.06 61.548 103.846 62.0793 103.419 62.4973C102.998 62.9223 102.493 63.2127 101.901 63.3686C101.317 63.5173 100.662 63.5953 99.9563 63.5953C98.0184 63.5953 96.5294 62.979 95.4679 61.7535C95.0903 61.3143 94.4206 61.2576 93.929 61.5764C93.3377 61.966 93.2237 62.7806 93.6726 63.3332C95.0547 65.0474 97.1421 65.9046 99.9206 65.9046C101.132 65.9046 102.215 65.7487 103.184 65.4299C104.153 65.1183 104.972 64.5728 105.642 63.8078C106.318 63.0356 106.653 62.0722 106.653 60.9176C106.653 60.0605 106.482 59.3167 106.133 58.6933L106.147 58.6862Z" fill="white"/>
<path d="M118.964 55.6048C117.895 54.436 116.406 53.848 114.49 53.848C112.708 53.848 111.262 54.4076 110.144 55.5127C109.032 56.6178 108.477 58.0416 108.477 59.7842C108.477 61.6118 109.039 63.0711 110.158 64.169C111.276 65.2599 112.78 65.8054 114.646 65.8054C115.58 65.8054 116.484 65.6354 117.375 65.2954C117.802 65.1324 118.187 64.9412 118.536 64.7145C119.128 64.3391 119.199 63.5032 118.693 63.0215C118.337 62.6744 117.795 62.6248 117.368 62.8798C117.133 63.0215 116.862 63.1419 116.556 63.2552C115.929 63.4748 115.309 63.5882 114.689 63.5882C113.649 63.5882 112.794 63.3261 112.124 62.8019C111.447 62.2848 111.063 61.5906 110.949 60.7263H119.192C119.79 60.7263 120.289 60.2446 120.289 59.6496C120.289 57.9283 119.847 56.5753 118.957 55.6048H118.964ZM111.006 58.7216C111.191 57.8433 111.604 57.1632 112.245 56.6886C112.887 56.214 113.656 55.9731 114.554 55.9731C115.53 55.9731 116.321 56.214 116.933 56.6886C117.546 57.1632 117.881 57.8433 117.945 58.7216H111.006Z" fill="white"/>
<path d="M131.367 63.0781C131.018 62.7381 130.498 62.7239 130.085 62.9719C129.501 63.3332 128.817 63.5102 128.019 63.5102C126.979 63.5102 126.109 63.1915 125.418 62.5469C124.72 61.8951 124.371 60.9955 124.371 59.8409C124.371 58.6862 124.72 57.8432 125.418 57.1561C126.109 56.469 126.986 56.129 128.04 56.129C128.767 56.129 129.415 56.299 129.978 56.6461C130.377 56.8869 130.883 56.8586 131.203 56.5257L131.389 56.3344C131.823 55.881 131.738 55.1443 131.21 54.7972C130.27 54.181 129.209 53.8693 128.019 53.8693C126.28 53.8693 124.841 54.3935 123.701 55.4348C122.554 56.4832 121.984 57.9495 121.984 59.8409C121.984 61.7322 122.554 63.2056 123.701 64.254C124.841 65.2953 126.28 65.8195 128.019 65.8195C129.28 65.8195 130.405 65.4866 131.403 64.8207C131.937 64.4595 132.023 63.7157 131.56 63.2623L131.367 63.0711V63.0781Z" fill="white"/>
<path d="M167.944 55.6048C166.868 54.4997 165.479 53.933 163.776 53.9188C162.971 53.9188 162.201 54.103 161.467 54.4643C160.734 54.8255 160.157 55.3356 159.736 55.9944V55.2789C159.686 54.6697 159.131 54.1526 158.518 54.1526C157.877 54.1526 157.35 54.6697 157.35 55.3143V69.6518C157.35 70.2894 157.87 70.8136 158.518 70.8136H158.568C159.209 70.8136 159.736 70.2964 159.736 69.6518V63.8644C160.142 64.509 160.719 64.9907 161.467 65.3095C162.216 65.6212 162.985 65.7841 163.776 65.7841C165.521 65.7841 166.925 65.2245 167.979 64.1194C169.026 63.0144 169.554 61.5905 169.554 59.8479C169.554 58.1053 169.019 56.7098 167.944 55.6048ZM166.141 62.4618C165.464 63.1348 164.595 63.4748 163.548 63.4748C162.501 63.4748 161.646 63.1277 160.969 62.4335C160.285 61.7464 159.95 60.8821 159.95 59.8479C159.95 58.8137 160.278 57.9566 160.933 57.2694C161.589 56.5752 162.458 56.2281 163.548 56.2281C164.638 56.2281 165.5 56.5611 166.17 57.234C166.832 57.8999 167.167 58.7712 167.167 59.8479C167.167 60.9247 166.825 61.7818 166.141 62.4618Z" fill="white"/>
<path d="M180.868 60.5209C180.583 60.0463 180.17 59.685 179.635 59.4442C179.101 59.2104 178.602 59.0404 178.132 58.9412C177.655 58.8421 177.099 58.7571 176.443 58.7004C174.805 58.5445 173.978 58.0558 173.964 57.2411C173.964 56.7949 174.185 56.4548 174.627 56.214C175.068 55.9802 175.66 55.8669 176.401 55.8811C177.284 55.8811 178.054 56.0652 178.695 56.4265C179.144 56.6744 179.692 56.6178 180.027 56.2282L180.041 56.214C180.462 55.7252 180.326 54.9814 179.763 54.6627C178.802 54.1243 177.662 53.848 176.351 53.848C175.118 53.848 174.014 54.1385 173.045 54.7193C172.083 55.2931 171.599 56.1573 171.599 57.312C171.613 59.2954 173.166 60.4359 176.258 60.7263C177.569 60.868 178.381 61.1372 178.73 61.5693C178.809 61.6685 178.859 61.8031 178.88 61.9306C179.001 62.6035 178.759 63.0923 178.168 63.404C177.683 63.6519 177.12 63.7724 176.472 63.7724C175.168 63.7511 174.071 63.4111 173.181 62.7523C172.739 62.4264 172.112 62.5469 171.784 62.9861L171.734 63.0569C171.414 63.4819 171.478 64.0982 171.891 64.4382C173.067 65.4016 174.584 65.8833 176.422 65.8833C177.897 65.8833 179.072 65.5504 179.949 64.8916C180.832 64.2257 181.281 63.3615 181.295 62.2777C181.295 61.5906 181.153 61.0026 180.868 60.528V60.5209Z" fill="white"/>
<path d="M155.669 57.4112L152.968 60.0109L151.85 61.0876L150.411 59.7063L148.031 57.4112H150.596C150.582 56.4265 150.389 55.5056 150.026 54.6556C149.648 53.763 149.014 53.0051 148.124 52.3817C147.233 51.7583 146.165 51.4396 144.911 51.4254C143.087 51.4254 141.662 51.9921 140.65 53.1326C140.551 53.2389 140.458 53.3522 140.373 53.4726C140.002 53.9614 139.318 54.1739 138.784 53.8622C138.363 53.6143 138.143 53.1963 138.143 52.7713C138.143 52.488 138.242 52.2046 138.435 51.9709C138.577 51.7938 138.734 51.6308 138.898 51.4608C140.458 49.867 142.467 49.0736 144.911 49.0736C147.54 49.0878 149.577 49.9166 151.016 51.5529C152.434 53.168 153.154 55.1231 153.175 57.4112H155.676H155.669Z" fill="white"/>
<path d="M151.301 63.1278C151.244 63.1986 151.194 63.2623 151.137 63.3332C150.482 64.1195 149.613 64.7358 148.53 65.1891C147.447 65.6425 146.222 65.8692 144.861 65.8692C143.5 65.8692 142.275 65.6354 141.192 65.1679C140.109 64.7003 139.24 64.0699 138.577 63.2907C137.922 62.5044 137.416 61.626 137.067 60.6484C136.718 59.6709 136.547 58.6367 136.547 57.5458C136.547 57.5174 136.547 57.4962 136.547 57.4749H133.996L137.33 54.266L137.815 53.7985L139.603 55.5198L141.633 57.4749H139.119C139.119 58.2471 139.247 58.9908 139.482 59.7063C139.71 60.3934 140.045 61.0239 140.494 61.5977C140.942 62.1714 141.541 62.639 142.289 62.979C143.037 63.3261 143.892 63.4961 144.854 63.4961C146.756 63.4961 148.188 62.9294 149.15 61.8031C149.214 61.7323 149.271 61.6543 149.328 61.5764C149.777 60.9885 150.61 60.9318 151.159 61.4347C151.643 61.881 151.693 62.6177 151.287 63.1348L151.301 63.1278Z" fill="white"/>
<path d="M215.055 50.0136V66.8136H212.295V54.8376L207.183 63.2856H206.847L201.735 54.8136V66.8136H198.975V50.0136H201.951L207.015 58.4136L212.103 50.0136H215.055ZM227.741 54.8136H230.333V66.8136H227.741V65.0856C226.765 66.4456 225.365 67.1256 223.541 67.1256C221.893 67.1256 220.485 66.5176 219.317 65.3016C218.149 64.0696 217.565 62.5736 217.565 60.8136C217.565 59.0376 218.149 57.5416 219.317 56.3256C220.485 55.1096 221.893 54.5016 223.541 54.5016C225.365 54.5016 226.765 55.1736 227.741 56.5176V54.8136ZM221.237 63.5736C221.957 64.2936 222.861 64.6536 223.949 64.6536C225.037 64.6536 225.941 64.2936 226.661 63.5736C227.381 62.8376 227.741 61.9176 227.741 60.8136C227.741 59.7096 227.381 58.7976 226.661 58.0776C225.941 57.3416 225.037 56.9736 223.949 56.9736C222.861 56.9736 221.957 57.3416 221.237 58.0776C220.517 58.7976 220.157 59.7096 220.157 60.8136C220.157 61.9176 220.517 62.8376 221.237 63.5736ZM240.05 57.3096H237.074V63.0696C237.074 63.5656 237.186 63.9256 237.41 64.1496C237.634 64.3576 237.962 64.4776 238.394 64.5096C238.842 64.5256 239.394 64.5176 240.05 64.4856V66.8136C238.066 67.0536 236.642 66.8856 235.778 66.3096C234.914 65.7176 234.482 64.6376 234.482 63.0696V57.3096H232.274V54.8136H234.482V52.2216L237.074 51.4536V54.8136H240.05V57.3096ZM250.606 54.8136H253.198V66.8136H250.606V65.2776C249.822 66.5096 248.582 67.1256 246.886 67.1256C245.51 67.1256 244.398 66.6856 243.55 65.8056C242.702 64.9256 242.278 63.7176 242.278 62.1816V54.8136H244.87V61.9176C244.87 62.8136 245.11 63.5016 245.59 63.9816C246.07 64.4616 246.726 64.7016 247.558 64.7016C248.47 64.7016 249.206 64.4216 249.766 63.8616C250.326 63.2856 250.606 62.4136 250.606 61.2456V54.8136ZM258.821 56.8296C259.477 55.3416 260.709 54.5976 262.517 54.5976V57.4056C261.525 57.3416 260.661 57.5816 259.925 58.1256C259.189 58.6536 258.821 59.5336 258.821 60.7656V66.8136H256.229V54.8136H258.821V56.8296ZM266.88 52.5336C266.56 52.8536 266.176 53.0136 265.728 53.0136C265.28 53.0136 264.888 52.8536 264.552 52.5336C264.232 52.1976 264.072 51.8056 264.072 51.3576C264.072 50.9096 264.232 50.5256 264.552 50.2056C264.872 49.8696 265.264 49.7016 265.728 49.7016C266.192 49.7016 266.584 49.8696 266.904 50.2056C267.224 50.5256 267.384 50.9096 267.384 51.3576C267.384 51.8056 267.216 52.1976 266.88 52.5336ZM264.432 66.8136V54.8136H267.024V66.8136H264.432ZM276.729 57.3096H273.753V63.0696C273.753 63.5656 273.865 63.9256 274.089 64.1496C274.313 64.3576 274.641 64.4776 275.073 64.5096C275.521 64.5256 276.073 64.5176 276.729 64.4856V66.8136C274.745 67.0536 273.321 66.8856 272.457 66.3096C271.593 65.7176 271.161 64.6376 271.161 63.0696V57.3096H268.953V54.8136H271.161V52.2216L273.753 51.4536V54.8136H276.729V57.3096ZM287.403 54.8136H290.163L285.555 67.1976C284.403 70.3016 282.451 71.7736 279.699 71.6136V69.1896C280.515 69.2376 281.171 69.0616 281.667 68.6616C282.163 68.2776 282.571 67.6696 282.891 66.8376L283.011 66.5976L277.923 54.8136H280.755L284.331 63.5256L287.403 54.8136ZM308.895 66.8136L307.719 63.4296H300.567L299.391 66.8136H296.391L302.487 50.0136H305.799L311.871 66.8136H308.895ZM301.479 60.8376H306.807L304.143 53.2536L301.479 60.8376ZM315.697 58.1256C315.697 58.5256 315.913 58.8456 316.345 59.0856C316.793 59.3096 317.329 59.5096 317.953 59.6856C318.593 59.8456 319.233 60.0376 319.873 60.2616C320.513 60.4856 321.049 60.8696 321.481 61.4136C321.929 61.9416 322.153 62.6136 322.153 63.4296C322.153 64.5816 321.705 65.4856 320.809 66.1416C319.929 66.7976 318.817 67.1256 317.473 67.1256C316.289 67.1256 315.273 66.8776 314.425 66.3816C313.577 65.8856 312.961 65.1976 312.577 64.3176L314.809 63.0216C315.225 64.1736 316.113 64.7496 317.473 64.7496C318.833 64.7496 319.513 64.3016 319.513 63.4056C319.513 63.0216 319.289 62.7096 318.841 62.4696C318.409 62.2296 317.873 62.0296 317.233 61.8696C316.609 61.6936 315.977 61.4936 315.337 61.2696C314.697 61.0456 314.153 60.6776 313.705 60.1656C313.273 59.6376 313.057 58.9736 313.057 58.1736C313.057 57.0696 313.473 56.1816 314.305 55.5096C315.153 54.8376 316.201 54.5016 317.449 54.5016C318.441 54.5016 319.321 54.7256 320.089 55.1736C320.873 55.6056 321.473 56.2136 321.889 56.9976L319.705 58.2216C319.289 57.3096 318.537 56.8536 317.449 56.8536C316.953 56.8536 316.537 56.9656 316.201 57.1896C315.865 57.3976 315.697 57.7096 315.697 58.1256ZM326.033 58.1256C326.033 58.5256 326.249 58.8456 326.681 59.0856C327.129 59.3096 327.665 59.5096 328.289 59.6856C328.929 59.8456 329.569 60.0376 330.209 60.2616C330.849 60.4856 331.385 60.8696 331.817 61.4136C332.265 61.9416 332.489 62.6136 332.489 63.4296C332.489 64.5816 332.041 65.4856 331.145 66.1416C330.265 66.7976 329.153 67.1256 327.809 67.1256C326.625 67.1256 325.609 66.8776 324.761 66.3816C323.913 65.8856 323.297 65.1976 322.913 64.3176L325.145 63.0216C325.561 64.1736 326.449 64.7496 327.809 64.7496C329.169 64.7496 329.849 64.3016 329.849 63.4056C329.849 63.0216 329.625 62.7096 329.177 62.4696C328.745 62.2296 328.209 62.0296 327.569 61.8696C326.945 61.6936 326.313 61.4936 325.673 61.2696C325.033 61.0456 324.489 60.6776 324.041 60.1656C323.609 59.6376 323.393 58.9736 323.393 58.1736C323.393 57.0696 323.809 56.1816 324.641 55.5096C325.489 54.8376 326.537 54.5016 327.785 54.5016C328.777 54.5016 329.657 54.7256 330.425 55.1736C331.209 55.6056 331.809 56.2136 332.225 56.9976L330.041 58.2216C329.625 57.3096 328.873 56.8536 327.785 56.8536C327.289 56.8536 326.873 56.9656 326.537 57.1896C326.201 57.3976 326.033 57.7096 326.033 58.1256ZM336.503 61.9176C336.695 62.8296 337.135 63.5336 337.823 64.0296C338.511 64.5096 339.351 64.7496 340.343 64.7496C341.719 64.7496 342.751 64.2536 343.439 63.2616L345.575 64.5096C344.391 66.2536 342.639 67.1256 340.319 67.1256C338.367 67.1256 336.791 66.5336 335.591 65.3496C334.391 64.1496 333.791 62.6376 333.791 60.8136C333.791 59.0216 334.383 57.5256 335.567 56.3256C336.751 55.1096 338.271 54.5016 340.127 54.5016C341.887 54.5016 343.327 55.1176 344.447 56.3496C345.583 57.5816 346.151 59.0776 346.151 60.8376C346.151 61.1096 346.119 61.4696 346.055 61.9176H336.503ZM336.479 59.8056H343.535C343.359 58.8296 342.951 58.0936 342.311 57.5976C341.687 57.1016 340.951 56.8536 340.103 56.8536C339.143 56.8536 338.343 57.1176 337.703 57.6456C337.063 58.1736 336.655 58.8936 336.479 59.8056ZM350.291 58.1256C350.291 58.5256 350.507 58.8456 350.939 59.0856C351.387 59.3096 351.923 59.5096 352.547 59.6856C353.187 59.8456 353.827 60.0376 354.467 60.2616C355.107 60.4856 355.643 60.8696 356.075 61.4136C356.523 61.9416 356.747 62.6136 356.747 63.4296C356.747 64.5816 356.299 65.4856 355.403 66.1416C354.523 66.7976 353.411 67.1256 352.067 67.1256C350.883 67.1256 349.867 66.8776 349.019 66.3816C348.171 65.8856 347.555 65.1976 347.171 64.3176L349.403 63.0216C349.819 64.1736 350.707 64.7496 352.067 64.7496C353.427 64.7496 354.107 64.3016 354.107 63.4056C354.107 63.0216 353.883 62.7096 353.435 62.4696C353.003 62.2296 352.467 62.0296 351.827 61.8696C351.203 61.6936 350.571 61.4936 349.931 61.2696C349.291 61.0456 348.747 60.6776 348.299 60.1656C347.867 59.6376 347.651 58.9736 347.651 58.1736C347.651 57.0696 348.067 56.1816 348.899 55.5096C349.747 54.8376 350.795 54.5016 352.043 54.5016C353.035 54.5016 353.915 54.7256 354.683 55.1736C355.467 55.6056 356.067 56.2136 356.483 56.9976L354.299 58.2216C353.883 57.3096 353.131 56.8536 352.043 56.8536C351.547 56.8536 351.131 56.9656 350.795 57.1896C350.459 57.3976 350.291 57.7096 350.291 58.1256ZM360.627 58.1256C360.627 58.5256 360.843 58.8456 361.275 59.0856C361.723 59.3096 362.259 59.5096 362.883 59.6856C363.523 59.8456 364.163 60.0376 364.803 60.2616C365.443 60.4856 365.979 60.8696 366.411 61.4136C366.859 61.9416 367.083 62.6136 367.083 63.4296C367.083 64.5816 366.635 65.4856 365.739 66.1416C364.859 66.7976 363.747 67.1256 362.403 67.1256C361.219 67.1256 360.203 66.8776 359.355 66.3816C358.507 65.8856 357.891 65.1976 357.507 64.3176L359.739 63.0216C360.155 64.1736 361.043 64.7496 362.403 64.7496C363.763 64.7496 364.443 64.3016 364.443 63.4056C364.443 63.0216 364.219 62.7096 363.771 62.4696C363.339 62.2296 362.803 62.0296 362.163 61.8696C361.539 61.6936 360.907 61.4936 360.267 61.2696C359.627 61.0456 359.083 60.6776 358.635 60.1656C358.203 59.6376 357.987 58.9736 357.987 58.1736C357.987 57.0696 358.403 56.1816 359.235 55.5096C360.083 54.8376 361.131 54.5016 362.379 54.5016C363.371 54.5016 364.251 54.7256 365.019 55.1736C365.803 55.6056 366.403 56.2136 366.819 56.9976L364.635 58.2216C364.219 57.3096 363.467 56.8536 362.379 56.8536C361.883 56.8536 361.467 56.9656 361.131 57.1896C360.795 57.3976 360.627 57.7096 360.627 58.1256ZM382.466 54.5016C383.826 54.5016 384.922 54.9416 385.754 55.8216C386.586 56.7016 387.002 57.8856 387.002 59.3736V66.8136H384.41V59.5416C384.41 58.7096 384.202 58.0696 383.786 57.6216C383.37 57.1576 382.802 56.9256 382.082 56.9256C381.282 56.9256 380.642 57.1896 380.162 57.7176C379.698 58.2456 379.466 59.0376 379.466 60.0936V66.8136H376.874V59.5416C376.874 58.7096 376.674 58.0696 376.274 57.6216C375.89 57.1576 375.338 56.9256 374.618 56.9256C373.834 56.9256 373.194 57.1976 372.698 57.7416C372.202 58.2696 371.954 59.0536 371.954 60.0936V66.8136H369.362V54.8136H371.954V56.2536C372.722 55.0856 373.866 54.5016 375.386 54.5016C376.922 54.5016 378.058 55.1336 378.794 56.3976C379.594 55.1336 380.818 54.5016 382.466 54.5016ZM391.816 61.9176C392.008 62.8296 392.448 63.5336 393.136 64.0296C393.824 64.5096 394.664 64.7496 395.656 64.7496C397.032 64.7496 398.064 64.2536 398.752 63.2616L400.888 64.5096C399.704 66.2536 397.952 67.1256 395.632 67.1256C393.68 67.1256 392.104 66.5336 390.904 65.3496C389.704 64.1496 389.104 62.6376 389.104 60.8136C389.104 59.0216 389.696 57.5256 390.88 56.3256C392.064 55.1096 393.584 54.5016 395.44 54.5016C397.2 54.5016 398.64 55.1176 399.76 56.3496C400.896 57.5816 401.464 59.0776 401.464 60.8376C401.464 61.1096 401.432 61.4696 401.368 61.9176H391.816ZM391.792 59.8056H398.848C398.672 58.8296 398.264 58.0936 397.624 57.5976C397 57.1016 396.264 56.8536 395.416 56.8536C394.456 56.8536 393.656 57.1176 393.016 57.6456C392.376 58.1736 391.968 58.8936 391.792 59.8056ZM410.056 54.5016C411.432 54.5016 412.544 54.9416 413.392 55.8216C414.24 56.7016 414.664 57.9096 414.664 59.4456V66.8136H412.072V59.7096C412.072 58.8136 411.832 58.1256 411.352 57.6456C410.872 57.1656 410.216 56.9256 409.384 56.9256C408.472 56.9256 407.736 57.2136 407.176 57.7896C406.616 58.3496 406.336 59.2136 406.336 60.3816V66.8136H403.744V54.8136H406.336V56.3496C407.12 55.1176 408.36 54.5016 410.056 54.5016ZM424.151 57.3096H421.175V63.0696C421.175 63.5656 421.287 63.9256 421.511 64.1496C421.735 64.3576 422.063 64.4776 422.495 64.5096C422.943 64.5256 423.495 64.5176 424.151 64.4856V66.8136C422.167 67.0536 420.743 66.8856 419.879 66.3096C419.015 65.7176 418.583 64.6376 418.583 63.0696V57.3096H416.375V54.8136H418.583V52.2216L421.175 51.4536V54.8136H424.151V57.3096Z" fill="white"/>
<defs>
<linearGradient id="paint0_linear_1107_7671" x1="17.144" y1="66.2243" x2="47.5573" y2="30.1987" gradientUnits="userSpaceOnUse">
<stop stop-color="#680FD2"/>
<stop offset="1" stop-color="#EE691E"/>
</linearGradient>
<linearGradient id="paint1_linear_1107_7671" x1="-9.70867" y1="49.717" x2="41.8695" y2="-2.15235" gradientUnits="userSpaceOnUse">
<stop stop-color="#680FD2"/>
<stop offset="1" stop-color="#EE691E"/>
</linearGradient>
<linearGradient id="paint2_linear_1107_7671" x1="-7.19737" y1="51.1592" x2="43.9515" y2="-0.283137" gradientUnits="userSpaceOnUse">
<stop stop-color="#680FD2"/>
<stop offset="1" stop-color="#EE691E"/>
</linearGradient>
</defs>
</svg>
