<svg width="219" height="124" viewBox="0 0 219 124" fill="none" xmlns="http://www.w3.org/2000/svg">
<g clip-path="url(#clip0_191_2915)">
<path d="M91.672 89.6281V86.7138H78.3301V105.406H81.3511V98.1H91.1589V95.3253H81.3511V89.6281H91.672Z" fill="white"/>
<path d="M96.7364 86.7959C96.2647 86.5907 95.7101 86.5907 95.2301 86.7959C94.5845 87.075 94.2617 87.584 94.2617 88.3392C94.2617 89.0945 94.5845 89.6199 95.2301 89.9072C95.7101 90.1124 96.2647 90.1124 96.7364 89.9072C97.3903 89.6199 97.7131 89.1027 97.7131 88.3392C97.7131 87.5758 97.3903 87.075 96.7364 86.7959ZM94.5845 92.1647V105.406H97.3572V92.1647H94.5845Z" fill="white"/>
<path d="M112.422 93.6916C111.346 92.567 109.981 92.0087 108.309 92.0087C106.637 92.0087 105.089 92.7147 103.831 94.1185L103.674 92.1976H101.133V105.406H103.914V98.5022C103.914 97.4022 104.261 96.4663 104.965 95.6947C105.668 94.9312 106.554 94.5454 107.63 94.5454C108.764 94.5454 109.649 94.8902 110.279 95.5797C110.908 96.2611 111.222 97.1888 111.222 98.3462V105.406H114.028V98.3216C114.028 96.3596 113.49 94.8163 112.422 93.6916Z" fill="white"/>
<path d="M131.697 97.4761C131.292 96.7537 130.704 96.179 129.926 95.7603C129.157 95.3417 128.37 95.0297 127.584 94.8163C126.789 94.6028 125.838 94.414 124.729 94.2498C123.23 94.0364 122.097 93.7491 121.31 93.3715C120.532 92.9938 120.143 92.4028 120.143 91.5819C120.143 90.7035 120.549 90.0139 121.352 89.5049C122.163 88.996 123.214 88.7415 124.513 88.7415C125.498 88.7661 126.409 88.9549 127.245 89.3161C128.081 89.6855 128.726 90.1863 129.173 90.8266L131.466 89.3079C130.133 87.1981 127.791 86.1474 124.431 86.1474C123.528 86.1474 122.668 86.2541 121.84 86.4593C121.012 86.6645 120.243 86.9683 119.523 87.3787C118.802 87.7892 118.223 88.3556 117.793 89.0616C117.362 89.7758 117.147 90.5968 117.147 91.5244C117.147 92.2878 117.288 92.9774 117.569 93.5685C117.842 94.1678 118.198 94.6521 118.62 95.0297C119.042 95.3991 119.597 95.7275 120.276 95.9902C120.963 96.2611 121.608 96.4663 122.229 96.6059C122.85 96.7454 123.595 96.8768 124.455 96.9835C125.962 97.1805 127.145 97.5007 127.998 97.9604C128.859 98.4119 129.281 99.1097 129.281 100.054C129.281 100.784 129.032 101.4 128.536 101.884C128.047 102.377 127.46 102.714 126.773 102.894C126.094 103.067 125.333 103.157 124.513 103.157C121.815 103.157 119.854 102.131 118.629 100.087L116.369 101.581C117.917 104.413 120.615 105.833 124.48 105.833C125.887 105.833 127.145 105.652 128.271 105.283C129.397 104.922 130.348 104.29 131.126 103.403C131.913 102.508 132.302 101.392 132.302 100.054C132.302 99.0604 132.103 98.1985 131.697 97.4761Z" fill="white"/>
<path d="M146.588 93.9051C145.346 92.5505 143.616 91.8692 141.39 91.8692C139.321 91.8692 137.64 92.5177 136.341 93.7983C135.05 95.079 134.404 96.729 134.404 98.7485C134.404 100.866 135.058 102.558 136.358 103.83C137.657 105.094 139.403 105.726 141.572 105.726C142.656 105.726 143.707 105.529 144.742 105.135C145.776 104.741 146.629 104.191 147.291 103.477L145.487 101.745C145.089 102.172 144.527 102.508 143.798 102.771C143.07 103.025 142.35 103.157 141.63 103.157C140.421 103.157 139.428 102.853 138.65 102.246C137.864 101.646 137.417 100.842 137.285 99.8403H148.069C148.326 97.238 147.829 95.2596 146.588 93.9051ZM137.343 97.5171C137.558 96.4992 138.038 95.7111 138.783 95.1611C139.528 94.6111 140.421 94.3319 141.464 94.3319C142.598 94.3319 143.517 94.6111 144.229 95.1611C144.94 95.7111 145.329 96.4992 145.404 97.5171H137.343Z" fill="white"/>
<path d="M160.261 101.852C159.45 102.664 158.399 103.075 157.108 103.075C155.9 103.075 154.89 102.705 154.087 101.958C153.276 101.203 152.87 100.16 152.87 98.8224C152.87 97.4843 153.276 96.5074 154.087 95.7111C154.89 94.9148 155.908 94.5207 157.133 94.5207C158.358 94.5207 159.318 94.9148 160.121 95.6947L161.9 93.8558C160.576 92.5505 158.97 91.902 157.108 91.902C155.088 91.902 153.417 92.5095 152.092 93.7162C150.76 94.9312 150.098 96.6305 150.098 98.8224C150.098 101.014 150.76 102.722 152.092 103.937C153.417 105.143 155.088 105.751 157.108 105.751C159.127 105.751 160.741 105.07 162.148 103.69L160.261 101.852Z" fill="white"/>
<path d="M203.489 93.9051C202.239 92.6244 200.625 91.9677 198.647 91.9513C197.712 91.9513 196.818 92.1647 195.966 92.5834C195.113 93.0021 194.443 93.5931 193.954 94.3566L193.797 92.2222H191.182V111.53H193.954V103.477C194.426 104.224 195.096 104.782 195.966 105.152C196.835 105.513 197.728 105.702 198.647 105.702C200.675 105.702 202.305 105.053 203.53 103.773C204.747 102.492 205.36 100.842 205.36 98.8224C205.36 96.8029 204.739 95.1857 203.489 93.9051ZM201.395 101.852C200.609 102.631 199.599 103.025 198.382 103.025C197.166 103.025 196.172 102.623 195.386 101.819C194.592 101.022 194.203 100.021 194.203 98.8224C194.203 97.6238 194.583 96.6305 195.345 95.8342C196.106 95.0297 197.116 94.6275 198.382 94.6275C199.649 94.6275 200.65 95.0133 201.428 95.7932C202.198 96.5649 202.587 97.5746 202.587 98.8224C202.587 100.07 202.19 101.063 201.395 101.852Z" fill="white"/>
<path d="M218.503 99.6023C218.172 99.0522 217.692 98.6336 217.071 98.3544C216.45 98.0835 215.871 97.8865 215.325 97.7716C214.77 97.6567 214.125 97.5582 213.363 97.4925C211.459 97.3119 210.499 96.7454 210.483 95.8014C210.483 95.2842 210.739 94.8902 211.253 94.6111C211.766 94.3402 212.453 94.2088 213.313 94.2252C214.754 94.2252 215.921 94.6357 216.814 95.4566L218.379 93.6342C217.054 92.4602 215.341 91.8692 213.256 91.8692C211.824 91.8692 210.541 92.2058 209.415 92.8789C208.298 93.5439 207.735 94.5454 207.735 95.8835C207.752 98.1821 209.556 99.5037 213.148 99.8403C214.315 99.9635 215.143 100.177 215.647 100.497C216.036 100.743 216.243 101.203 216.227 101.663C216.21 102.229 215.921 102.656 215.366 102.943C214.803 103.231 214.149 103.37 213.396 103.37C211.435 103.337 209.879 102.689 208.728 101.416L207.271 103.37C208.728 104.996 210.756 105.808 213.338 105.808C215.052 105.808 216.417 105.423 217.435 104.659C218.462 103.887 218.983 102.886 218.999 101.63C218.999 100.834 218.834 100.152 218.503 99.6023Z" fill="white"/>
<path d="M189.229 95.9984L186.092 99.0112L184.793 100.259L183.121 98.6582L180.357 95.9984H183.336C183.32 94.8573 183.096 93.7901 182.674 92.805C182.235 91.7707 181.499 90.8923 180.464 90.1699C179.43 89.4475 178.188 89.0781 176.731 89.0616C174.613 89.0616 172.957 89.7184 171.782 91.0401C171.658 91.1796 171.534 91.3274 171.426 91.4834C170.921 92.1647 169.936 92.255 169.324 91.664C169.026 91.3766 168.877 90.999 168.877 90.6214C168.877 90.293 168.993 89.9647 169.216 89.6937C169.382 89.4885 169.564 89.2997 169.754 89.1027C171.567 87.2556 173.901 86.3362 176.74 86.3362C179.794 86.3526 182.161 87.3131 183.833 89.2094C185.48 91.0811 186.316 93.3468 186.341 95.9984H189.246H189.229Z" fill="white"/>
<path d="M184.146 102.64C184.089 102.714 184.031 102.787 183.964 102.861C183.203 103.773 182.193 104.487 180.935 105.012C179.677 105.538 178.254 105.8 176.673 105.8C175.092 105.8 173.668 105.529 172.41 104.987C171.152 104.446 170.142 103.715 169.373 102.812C168.611 101.901 168.024 100.883 167.618 99.75C167.212 98.6172 167.014 97.4186 167.014 96.1544C167.014 96.1216 167.014 96.0969 167.014 96.0723H164.051L167.924 92.3535L168.487 91.8117L170.564 93.8066L172.923 96.0723H170.002C170.002 96.0723 170.002 96.1462 170.002 96.1872C170.018 97.041 170.159 97.8701 170.416 98.6582C170.68 99.4545 171.069 100.185 171.591 100.85C172.112 101.515 172.807 102.057 173.677 102.451C174.546 102.853 175.539 103.05 176.656 103.05C178.866 103.05 180.53 102.393 181.647 101.088C181.721 101.006 181.788 100.916 181.854 100.834C182.375 100.16 183.368 100.07 183.981 100.661C184.527 101.195 184.593 102.049 184.122 102.648L184.146 102.64Z" fill="white"/>
<path d="M88.8084 24.5135C88.0387 24.3575 87.8069 24.0127 87.6579 23.3067C85.6964 13.8333 76.0872 7.47119 66.5773 9.42498C65.4931 9.64662 64.4254 9.99141 63.3743 10.3608C61.6196 10.9765 59.6498 10.4675 58.4579 9.05556C52.0435 1.421 43.5931 -1.82163 33.2224 1.01054C21.8917 4.11362 16.2636 12.2161 15.2704 23.6351C15.229 24.0538 14.9393 24.3986 14.5338 24.5053H14.5255C7.25862 26.3441 2.54093 30.8017 0.504875 37.993C0.331066 38.6169 0.215193 39.2572 0.0910431 39.8975C0.0331066 40.1849 0 40.4722 0 40.7677V43.7723C0 43.8872 0.0248299 43.9939 0.0579365 44.1006C0.107596 44.232 0.157256 44.3633 0.173809 44.4947C1.20011 52.8845 8.86428 60.2235 18.8211 60.1907C21.031 60.1825 23.2325 60.1743 25.4341 60.1743C27.9254 60.1661 29.9449 62.1691 29.9449 64.6319V112.089C29.9449 118.665 35.3164 124.001 41.9543 124.001C45.2732 124.001 48.2777 122.663 50.4461 120.512C52.6229 118.353 53.9637 115.373 53.9637 112.089V105.366H71.8082V86.8624H53.9637V64.6072C53.9637 62.1445 55.9832 60.1496 58.4662 60.1496C67.1981 60.1496 75.9299 60.1496 84.6618 60.1496C85.5639 60.1496 86.4744 60.0922 87.3765 59.9855C96.1498 58.9183 103.102 51.53 103.425 42.9514C103.748 34.1018 97.5402 26.2456 88.8084 24.5053V24.5135ZM53.2023 41.1782L51.6049 42.7133L49.544 40.7349L47.0527 38.346C46.7548 41.0961 44.4125 43.2305 41.5653 43.2305C38.5112 43.2305 36.0448 40.7841 36.0448 37.7549C36.0448 37.6811 36.0448 37.6072 36.0531 37.5333H33.388V37.6728C33.4128 38.7318 33.5866 39.7498 33.9011 40.7267C34.2239 41.7036 34.704 42.6066 35.3495 43.4275C35.9951 44.2484 36.8476 44.9134 37.9236 45.4059C38.9416 45.8738 40.1003 46.1201 41.3915 46.1447H41.4412C41.4825 46.1365 41.5239 46.1365 41.5653 46.1365C41.615 46.1365 41.6563 46.1365 41.6977 46.1447H41.7308C44.3876 46.1201 46.3989 45.3156 47.748 43.723C47.8307 43.6163 47.9218 43.5096 48.0045 43.4029C48.6418 42.5737 49.8668 42.467 50.6282 43.1976C51.3069 43.8544 51.3814 44.9051 50.802 45.644C50.7275 45.7343 50.6531 45.8246 50.5786 45.9149C49.635 47.0395 48.3935 47.9179 46.8375 48.5665C45.7285 49.0344 44.5201 49.3299 43.2041 49.4613V107.845C43.2041 108.748 42.4675 109.487 41.557 109.487C40.6466 109.487 39.9017 108.748 39.9017 107.845V49.453C38.6188 49.3135 37.427 49.0098 36.3345 48.5336C34.7867 47.8687 33.537 46.9657 32.6017 45.8492C31.6582 44.7245 30.9381 43.4685 30.4415 42.073C29.9449 40.6774 29.6883 39.1998 29.6883 37.64C29.6883 37.6072 29.6883 37.5743 29.6966 37.5333H26.0466L30.8222 32.9443L31.5175 32.2794L34.0749 34.7422L36.1441 36.7206C36.6241 34.1921 38.8588 32.2794 41.557 32.2794C44.5035 32.2794 46.912 34.578 47.061 37.4594H49.7923C49.7675 36.0474 49.5026 34.7339 48.9812 33.519C48.4432 32.2466 47.5328 31.1629 46.2582 30.2764C44.9836 29.3898 43.4524 28.93 41.6563 28.9054C39.0409 28.9054 37.0049 29.7181 35.5565 31.3435C35.3992 31.5241 35.2502 31.7048 35.1178 31.8854C34.4888 32.7227 33.2721 32.8376 32.5189 32.1152C32.1548 31.7622 31.9727 31.2943 31.9727 30.8264C31.9727 30.4241 32.1134 30.0137 32.3865 29.6853C32.6017 29.4308 32.8169 29.1927 33.0486 28.9547C35.2833 26.6807 38.1553 25.5478 41.6563 25.5478C45.4222 25.5643 48.3356 26.7464 50.3965 29.086C52.4243 31.3928 53.4506 34.1839 53.4837 37.4594H57.0592L53.194 41.1782H53.2023Z" fill="url(#paint0_linear_191_2915)"/>
</g>
<defs>
<linearGradient id="paint0_linear_191_2915" x1="93" y1="16.0001" x2="12.5246" y2="24.4701" gradientUnits="userSpaceOnUse">
<stop stop-color="#EE691E"/>
<stop offset="1" stop-color="#680FD2"/>
</linearGradient>
<clipPath id="clip0_191_2915">
<rect width="219" height="124" fill="white"/>
</clipPath>
</defs>
</svg>
