<svg width="205" height="40" viewBox="0 0 205 40" fill="none" xmlns="http://www.w3.org/2000/svg">
<g clip-path="url(#clip0_439_3985)">
<path d="M30.0806 19.1596C27.2821 18.9016 24.421 19.0736 21.6225 19.7302C20.2233 20.0742 18.8553 20.5432 17.5264 21.1295C16.1975 21.7158 14.9389 22.4584 13.7195 23.2714C11.3587 24.9286 9.27154 26.9845 7.50488 29.2671H11.9294C12.9534 27.8834 14.1103 26.6014 15.408 25.4523C16.4007 24.6159 17.4482 23.8264 18.5817 23.1697C19.7152 22.5131 20.9112 21.9424 22.1541 21.4812C24.6556 20.5901 27.3368 20.1211 30.0572 20.0664C32.7697 20.0194 35.5291 20.3165 38.1869 21.0826C35.6307 20.0273 32.8791 19.4175 30.0884 19.1439" fill="white"/>
<path d="M11.4286 22.9509L20.0039 8.36428L25.3742 17.5103C24.1939 17.6041 23.0213 17.7682 21.8722 18.0106L19.9961 14.8212L17.2679 19.4645C17.135 19.5193 16.9943 19.574 16.8614 19.6365C15.5873 20.1993 14.2584 20.942 12.7731 21.9347C12.3197 22.2552 11.8663 22.5992 11.4286 22.9431M19.9961 36.7246C10.7719 36.7246 3.26754 29.2202 3.26754 19.9961C3.26754 10.7719 10.7798 3.27536 20.0039 3.27536C26.9064 3.27536 32.8474 7.48095 35.3957 13.461H38.9056C36.1931 5.6283 28.7512 0 20.0039 0C8.95837 0 0 8.95837 0 20.0039C0 31.0494 8.95837 40.0078 20.0039 40.0078C23.8734 40.0078 27.4849 38.9056 30.5413 37.0061L28.8841 34.1763C26.3045 35.7944 23.2636 36.7403 20.0039 36.7403M35.427 26.4686C34.8095 27.9304 33.9887 29.2984 33.0037 30.5179L27.0236 20.3322C25.8745 20.4886 24.7489 20.7309 23.6467 21.0436L30.6273 32.9334L32.3002 35.7866C35.3332 33.418 37.6549 30.1974 38.9291 26.4765H35.427V26.4686Z" fill="white"/>
<path d="M53.2969 29.1499C51.9055 29.1499 50.6 28.8763 49.3806 28.3134C48.1611 27.7584 47.0902 27.0002 46.1756 26.0465C45.261 25.0928 44.5418 23.9749 44.018 22.6929C43.4943 21.4109 43.2285 20.0351 43.2285 18.5655C43.2285 17.0959 43.4943 15.7436 44.018 14.4537C44.5418 13.1639 45.261 12.0383 46.1756 11.0846C47.0902 10.1309 48.1533 9.38046 49.3806 8.81763C50.6 8.26262 51.9055 7.9812 53.2969 7.9812C54.6884 7.9812 56.072 8.27825 57.3305 8.87235C58.5891 9.46645 59.6913 10.2872 60.6215 11.3191L58.8314 12.8981C58.1357 12.1008 57.3071 11.4833 56.3456 11.0377C55.3841 10.5921 54.36 10.3654 53.2891 10.3654C52.2182 10.3654 51.241 10.5765 50.3108 11.0064C49.3806 11.4364 48.5598 12.0226 47.8719 12.7653C47.1761 13.5079 46.6211 14.3756 46.2146 15.3762C45.8082 16.3689 45.6049 17.4321 45.6049 18.5655C45.6049 19.699 45.8082 20.7621 46.2146 21.7549C46.6211 22.7477 47.1761 23.6154 47.8719 24.3658C48.5676 25.1084 49.3806 25.6947 50.3108 26.1246C51.241 26.5546 52.2416 26.7656 53.2891 26.7656C54.3366 26.7656 55.3763 26.539 56.3456 26.0934C57.3071 25.6478 58.1357 25.0224 58.8314 24.2329L60.6215 25.812C59.6835 26.8438 58.5891 27.6568 57.3305 28.2587C56.072 28.8606 54.7196 29.1499 53.2969 29.1499Z" fill="white"/>
<path d="M67.9536 29.0015C67.3752 29.0015 66.828 28.8999 66.312 28.6888C65.7961 28.4777 65.3505 28.1963 64.9675 27.8367C64.5923 27.4771 64.2952 27.055 64.0764 26.5704C63.8575 26.0857 63.748 25.562 63.748 25.007V8.14551H66.1323V25.007C66.1323 25.4603 66.3042 25.8434 66.656 26.1561C66.9999 26.4609 67.4377 26.6173 67.9536 26.6173C68.1725 26.6173 68.407 26.5704 68.665 26.4687L69.5561 28.7044C69.2982 28.8061 69.0324 28.8764 68.7666 28.9311C68.5008 28.978 68.2272 29.0015 67.9458 29.0015" fill="white"/>
<path d="M77.5219 13.7112C78.5381 13.7112 79.4918 13.9144 80.3829 14.3209C81.2741 14.7274 82.0558 15.2824 82.7202 15.9781C83.3847 16.6739 83.9163 17.4868 84.2993 18.4171C84.6823 19.3473 84.8778 20.3557 84.8778 21.4266C84.8778 22.4976 84.6823 23.506 84.2993 24.4362C83.9084 25.3743 83.3847 26.1872 82.7202 26.883C82.0558 27.5787 81.2741 28.1259 80.3829 28.5402C79.4918 28.9467 78.5381 29.1499 77.5219 29.1499C76.5057 29.1499 75.552 28.9467 74.6608 28.5402C73.7697 28.1337 72.988 27.5787 72.3235 26.883C71.6591 26.1872 71.1353 25.3743 70.7445 24.4362C70.3614 23.506 70.166 22.4976 70.166 21.4266C70.166 20.3557 70.3614 19.3473 70.7445 18.4171C71.1353 17.4868 71.6591 16.6739 72.3235 15.9781C72.988 15.2824 73.7697 14.7352 74.6608 14.3209C75.552 13.9144 76.5057 13.7112 77.5219 13.7112ZM77.5219 26.7579C78.1942 26.7579 78.8352 26.6172 79.4449 26.3436C80.0468 26.0622 80.5862 25.6791 81.0396 25.1945C81.493 24.7098 81.8526 24.1392 82.1105 23.4982C82.3685 22.8572 82.5014 22.1614 82.5014 21.4266C82.5014 20.6918 82.3685 20.0039 82.1105 19.3551C81.8526 18.7063 81.493 18.1435 81.0396 17.6588C80.5862 17.1741 80.0546 16.7911 79.4449 16.5097C78.843 16.2283 78.1942 16.0954 77.5219 16.0954C76.8496 16.0954 76.1774 16.2361 75.5833 16.5097C74.9892 16.7911 74.4576 17.1663 74.0042 17.6588C73.543 18.1435 73.1912 18.7141 72.9333 19.3551C72.6753 20.0039 72.5424 20.6918 72.5424 21.4266C72.5424 22.1614 72.6753 22.8493 72.9333 23.4982C73.1912 24.147 73.5508 24.7098 74.0042 25.1945C74.4576 25.6791 74.9892 26.0622 75.5833 26.3436C76.1774 26.6172 76.8262 26.7579 77.5219 26.7579Z" fill="white"/>
<path d="M97.5419 14.6101H99.9261V23.4903C99.9261 24.2877 99.7619 25.0303 99.4336 25.726C99.1053 26.4217 98.6597 27.0236 98.1047 27.5317C97.5497 28.0399 96.9009 28.4385 96.1661 28.7278C95.4313 29.017 94.6496 29.1577 93.8132 29.1577C92.9767 29.1577 92.1872 29.0092 91.4446 28.7121C90.702 28.4151 90.0531 28.0164 89.4903 27.5083C88.9353 27.0002 88.4975 26.3983 88.177 25.7104C87.8565 25.0146 87.7002 24.2798 87.7002 23.5059V14.6257H90.0844V23.5059C90.0844 23.9593 90.186 24.3893 90.3815 24.7879C90.5769 25.1866 90.8505 25.5306 91.1866 25.8276C91.5227 26.1247 91.9136 26.3592 92.367 26.5312C92.8126 26.7031 93.2972 26.7813 93.8132 26.7813C94.3291 26.7813 94.8137 26.6953 95.2749 26.5155C95.7283 26.3357 96.127 26.1012 96.4631 25.8042C96.7993 25.5071 97.0651 25.1553 97.2527 24.7645C97.4403 24.3658 97.5341 23.9515 97.5341 23.5138V14.6336L97.5419 14.6101Z" fill="white"/>
<path d="M110.12 29.15C109.103 29.15 108.15 28.9468 107.258 28.5403C106.367 28.1338 105.586 27.5788 104.921 26.8909C104.257 26.1951 103.733 25.3822 103.342 24.4441C102.959 23.5139 102.764 22.5055 102.764 21.4345C102.764 20.3636 102.959 19.363 103.342 18.425C103.733 17.4869 104.257 16.6739 104.921 15.986C105.586 15.2903 106.367 14.7431 107.258 14.3288C108.15 13.9223 109.103 13.7191 110.12 13.7191C111.073 13.7191 111.98 13.8989 112.832 14.2585C113.684 14.6181 114.442 15.1105 115.099 15.7515V8.14551H117.483V29.0015H115.099V27.1254C114.442 27.7586 113.684 28.2589 112.832 28.6184C111.98 28.978 111.073 29.15 110.12 29.15ZM110.12 16.0955C109.424 16.0955 108.775 16.2362 108.181 16.5098C107.587 16.7912 107.055 17.1742 106.602 17.6589C106.148 18.1436 105.789 18.7142 105.531 19.3552C105.273 20.004 105.14 20.6919 105.14 21.4267C105.14 22.1615 105.273 22.8494 105.531 23.4983C105.789 24.1471 106.148 24.7099 106.602 25.1946C107.055 25.6792 107.587 26.0623 108.181 26.3437C108.775 26.6251 109.424 26.758 110.12 26.758C110.815 26.758 111.433 26.6173 112.043 26.3437C112.644 26.0623 113.184 25.687 113.637 25.1946C114.091 24.7099 114.45 24.1393 114.708 23.4983C114.966 22.8494 115.099 22.1615 115.099 21.4267C115.099 20.6919 114.966 20.004 114.708 19.3552C114.45 18.7064 114.091 18.1436 113.637 17.6589C113.184 17.1742 112.644 16.7912 112.043 16.5098C111.441 16.2362 110.792 16.0955 110.12 16.0955Z" fill="white"/>
<path d="M123.948 24.5301L122.251 29.0015H119.719L127.551 8.14551H130.084L137.917 29.0015H135.384L133.688 24.5301H123.948ZM128.833 11.5381L124.839 22.1459H132.797L128.833 11.5381Z" fill="white"/>
<path d="M146.265 13.7112C147.102 13.7112 147.891 13.8597 148.634 14.1568C149.376 14.4538 150.025 14.8603 150.588 15.3606C151.143 15.8687 151.581 16.4706 151.901 17.1663C152.222 17.8621 152.378 18.5969 152.378 19.3707V28.9936H149.994V19.3707C149.994 18.9174 149.892 18.4874 149.697 18.0887C149.502 17.6901 149.228 17.3461 148.892 17.0491C148.556 16.752 148.165 16.5175 147.719 16.3455C147.274 16.1736 146.789 16.0954 146.273 16.0954C145.757 16.0954 145.273 16.1814 144.827 16.3455C144.381 16.5175 143.991 16.752 143.654 17.0491C143.318 17.3461 143.045 17.6979 142.849 18.0887C142.654 18.4874 142.552 18.9095 142.552 19.3707V28.9936H140.168V14.6101H142.552V14.8759C143.068 14.5007 143.647 14.2115 144.28 14.016C144.913 13.8206 145.577 13.719 146.273 13.719" fill="white"/>
<path d="M157.975 25.3351C157.139 24.7567 156.467 24.0219 155.966 23.1151C155.458 22.2083 155.208 21.2233 155.208 20.1524C155.208 19.2613 155.388 18.4248 155.747 17.6509C156.107 16.877 156.584 16.197 157.194 15.6107C157.795 15.0244 158.515 14.5632 159.335 14.2271C160.156 13.8909 161.04 13.7189 161.97 13.7189C163.322 13.7189 164.549 14.0707 165.667 14.7586L167.004 13.3906L168.7 15.0869L167.418 16.3689C168.27 17.4633 168.7 18.7219 168.7 20.1524C168.7 21.2233 168.45 22.2161 167.958 23.1151C167.457 24.0219 166.785 24.7567 165.933 25.3351C166.769 25.8901 167.442 26.5859 167.942 27.4223C168.45 28.2587 168.7 29.1811 168.7 30.1895C168.7 31.0025 168.528 31.7764 168.177 32.5112C167.833 33.246 167.356 33.887 166.746 34.4342C166.136 34.9814 165.425 35.4113 164.604 35.7318C163.783 36.0523 162.9 36.2087 161.97 36.2087C161.04 36.2087 160.133 36.0523 159.32 35.7318C158.507 35.4113 157.788 34.9814 157.178 34.4342C156.56 33.887 156.084 33.2538 155.732 32.5268C155.388 31.7999 155.208 31.026 155.208 30.1895H157.592C157.592 30.6664 157.709 31.1276 157.936 31.5732C158.163 32.0187 158.476 32.4096 158.859 32.7379C159.242 33.0662 159.711 33.332 160.242 33.5274C160.782 33.7229 161.352 33.8245 161.97 33.8245C162.587 33.8245 163.158 33.7229 163.682 33.5274C164.205 33.332 164.667 33.0662 165.05 32.7379C165.441 32.4096 165.745 32.0187 165.972 31.5732C166.199 31.1276 166.316 30.6664 166.316 30.1895C166.316 29.7127 166.199 29.2593 165.972 28.8215C165.745 28.3838 165.433 28.0008 165.05 27.6724C164.667 27.3441 164.205 27.0862 163.682 26.8829C163.158 26.6875 162.587 26.5859 161.97 26.5859C161.352 26.5859 160.735 26.6875 160.18 26.8829C159.625 27.0783 159.14 27.3832 158.718 27.7741L157.108 26.0152C157.389 25.7572 157.67 25.5306 157.975 25.3273M161.97 16.0875C161.376 16.0875 160.805 16.1891 160.273 16.4002C159.734 16.6113 159.273 16.9005 158.874 17.2679C158.476 17.6353 158.163 18.0652 157.936 18.5655C157.709 19.0658 157.592 19.5896 157.592 20.1446C157.592 20.6996 157.709 21.2233 157.936 21.7236C158.163 22.2239 158.476 22.6539 158.874 23.0213C159.273 23.3887 159.742 23.6779 160.273 23.889C160.813 24.1 161.376 24.2016 161.97 24.2016C162.564 24.2016 163.135 24.1 163.666 23.889C164.205 23.6779 164.667 23.3887 165.05 23.0213C165.441 22.6539 165.745 22.2239 165.972 21.7236C166.199 21.2233 166.316 20.6996 166.316 20.1446C166.316 19.5896 166.199 19.0346 165.956 18.5343C165.722 18.034 165.401 17.6118 165.003 17.2523C164.604 16.8927 164.143 16.6113 163.619 16.4002C163.095 16.1891 162.54 16.0875 161.97 16.0875Z" fill="white"/>
<path d="M175.642 29.0015C175.064 29.0015 174.516 28.8999 174.001 28.6888C173.485 28.4777 173.039 28.1963 172.656 27.8367C172.281 27.4771 171.984 27.055 171.765 26.5704C171.546 26.0857 171.437 25.562 171.437 25.007V8.14551H173.821V25.007C173.821 25.4603 173.993 25.8434 174.344 26.1561C174.688 26.4609 175.126 26.6173 175.642 26.6173C175.861 26.6173 176.096 26.5704 176.353 26.4687L177.245 28.7044C176.987 28.8061 176.721 28.8764 176.455 28.9311C176.189 28.978 175.916 29.0015 175.634 29.0015" fill="white"/>
<path d="M185.203 29.1499C184.186 29.1499 183.233 28.9467 182.342 28.5402C181.45 28.1337 180.669 27.5787 180.004 26.8908C179.34 26.1951 178.816 25.3821 178.425 24.444C178.042 23.5138 177.847 22.5054 177.847 21.4345C177.847 20.3635 178.042 19.3629 178.425 18.4249C178.816 17.4868 179.34 16.6739 180.004 15.9859C180.669 15.2902 181.45 14.743 182.342 14.3287C183.233 13.9222 184.186 13.719 185.203 13.719C186.219 13.719 187.172 13.9222 188.064 14.3287C188.955 14.7352 189.736 15.2902 190.401 15.9859C191.065 16.6817 191.597 17.4946 191.98 18.4249C192.363 19.3551 192.558 20.3635 192.558 21.4345H180.223C180.223 22.1693 180.356 22.8572 180.614 23.506C180.872 24.1548 181.231 24.7176 181.685 25.2023C182.138 25.6869 182.67 26.07 183.264 26.3514C183.858 26.6328 184.507 26.7657 185.203 26.7657C185.898 26.7657 186.555 26.625 187.172 26.3358C187.79 26.0465 188.337 25.6479 188.814 25.1319L190.573 26.711C189.877 27.4849 189.072 28.0868 188.157 28.5167C187.243 28.9467 186.258 29.1577 185.21 29.1577M185.21 16.1032C184.233 16.1032 183.35 16.369 182.56 16.9084C181.763 17.4477 181.169 18.1591 180.77 19.0502H189.682C189.267 18.1591 188.658 17.4399 187.86 16.9084C187.063 16.369 186.18 16.1032 185.21 16.1032Z" fill="white"/>
<path d="M204.963 24.7411C204.963 25.3586 204.815 25.9293 204.518 26.4687C204.221 27.0002 203.822 27.4692 203.314 27.8679C202.806 28.2666 202.212 28.5793 201.524 28.806C200.836 29.0327 200.109 29.1499 199.335 29.1499C198.796 29.1499 198.264 29.0874 197.725 28.9701C197.185 28.8529 196.685 28.6653 196.224 28.4151C195.755 28.165 195.333 27.8679 194.958 27.5083C194.582 27.1487 194.277 26.7344 194.066 26.2576L196.24 25.2726C196.396 25.6322 196.748 25.9684 197.279 26.281C197.819 26.6015 198.499 26.7579 199.335 26.7579C199.789 26.7579 200.218 26.7032 200.617 26.5937C201.016 26.4843 201.36 26.3358 201.649 26.1482C201.938 25.9605 202.165 25.7417 202.337 25.4915C202.501 25.2414 202.587 24.9912 202.587 24.7333C202.587 24.1392 202.259 23.6467 201.602 23.2558C200.945 22.865 200.062 22.4507 198.952 21.9895C198.436 21.7706 197.92 21.5517 197.404 21.3328C196.888 21.114 196.412 20.856 195.974 20.5589C194.817 19.7851 194.246 18.8001 194.246 17.6119C194.246 17.0569 194.379 16.541 194.645 16.0641C194.911 15.5873 195.278 15.173 195.731 14.829C196.185 14.4851 196.732 14.2115 197.357 14.0082C197.983 13.8128 198.639 13.7112 199.343 13.7112C200.414 13.7112 201.383 13.9379 202.251 14.3834C203.119 14.829 203.736 15.4309 204.111 16.1892L201.993 17.2601C201.837 16.9631 201.524 16.6895 201.071 16.455C200.609 16.2205 200.039 16.0954 199.343 16.0954C198.569 16.0954 197.92 16.2595 197.404 16.5879C196.888 16.9162 196.63 17.2601 196.63 17.6197C196.63 18.034 196.927 18.4092 197.506 18.7376C198.092 19.0659 198.858 19.4176 199.812 19.7929C200.39 20.0117 200.961 20.2463 201.524 20.512C202.095 20.77 202.61 21.0671 203.087 21.4032C204.338 22.2943 204.963 23.4122 204.963 24.7411Z" fill="white"/>
</g>
<defs>
<clipPath id="clip0_439_3985">
<rect width="204.964" height="40" fill="white"/>
</clipPath>
</defs>
</svg>
