<svg width="99" height="119" viewBox="0 0 99 119" fill="none" xmlns="http://www.w3.org/2000/svg">
<path d="M84.9256 23.5998C84.1879 23.4515 83.9682 23.1236 83.8348 22.4522C81.9751 13.4508 72.8646 7.39257 63.8483 9.25063C62.8125 9.46141 61.8081 9.78931 60.8115 10.1406C59.148 10.7261 57.2803 10.2499 56.1504 8.89931C50.0689 1.63886 42.057 -1.44488 32.2247 1.25632C21.4742 4.19954 16.146 11.905 15.1965 22.7723C15.1652 23.1626 14.8905 23.4983 14.506 23.592H14.4982C7.60059 25.3485 3.12776 29.5799 1.20523 36.4188C1.04045 37.0121 0.930586 37.6289 0.81288 38.23C0.757951 38.5032 0.726562 38.7843 0.726562 39.0575V41.9149C0.726562 42.0242 0.742257 42.1257 0.781492 42.2272C0.828574 42.3521 0.875657 42.477 0.891351 42.6097C1.86439 50.5806 9.13077 57.56 18.5708 57.5288C20.666 57.521 22.7533 57.5131 24.8406 57.5131C27.2026 57.5053 29.1094 59.4102 29.1094 61.7523V106.884C29.1094 113.145 34.21 118.212 40.5033 118.212C43.6422 118.212 46.4906 116.947 48.5544 114.894C50.6104 112.849 51.8894 110.015 51.8894 106.884V100.49H68.7998V92.4804H65.6689V95.4315H63.4717V88.8971H60.3329V95.4315H58.1435V84.3612H55.0047V95.4315H51.8894V61.7367C51.8894 59.3946 53.7963 57.4897 56.1582 57.4897C64.4369 57.4975 72.7155 57.5053 80.9863 57.4975C81.8495 57.4975 82.7127 57.4429 83.568 57.3414C91.8859 56.3265 98.4774 49.3002 98.7756 41.142C99.0895 32.7339 93.2042 25.2549 84.9256 23.5998ZM41.6961 97.6486C41.6961 98.5152 40.9977 99.21 40.1267 99.21C39.2556 99.21 38.5651 98.5152 38.5651 97.6486V45.9042C38.5651 45.0455 39.2635 44.3428 40.1267 44.3428C40.5661 44.3428 40.9585 44.5224 41.241 44.8034C41.5234 45.0845 41.6961 45.4748 41.6961 45.9042V97.6486ZM39.8599 42.4223C36.054 42.4223 32.515 40.4862 30.4669 37.3322L28.7484 37.9411C28.3639 38.0817 28.003 37.6757 28.1834 37.3088L30.0353 33.5771C30.1452 33.3507 30.412 33.257 30.6396 33.3585L34.4454 35.0916C34.8221 35.2634 34.7985 35.802 34.4062 35.9348L32.7661 36.5203C34.414 38.7453 37.0506 40.0802 39.8599 40.0802C44.7172 40.0802 48.68 36.1455 48.68 31.3052C48.68 30.6573 49.2057 30.1342 49.857 30.1342C50.5083 30.1342 51.0341 30.6573 51.0341 31.3052C51.0341 37.4337 46.0198 42.4223 39.8599 42.4223ZM36.9172 30.5636C36.3993 30.0717 36.1325 29.4238 36.1325 28.6275C36.1325 27.7921 36.4229 27.1129 36.9878 26.6055C37.5607 26.1058 38.3454 25.8248 39.342 25.7701V24.7786H40.2522V25.7701C40.8643 25.8248 41.4136 25.9809 41.908 26.2307C42.4023 26.4884 42.8653 26.8475 43.2969 27.3159L42.1355 28.5338C41.8609 28.1512 41.5705 27.8546 41.2645 27.6594C40.9585 27.4642 40.621 27.3471 40.2522 27.3159V30.1576C41.4685 30.4621 42.3317 30.8602 42.8496 31.3677C43.3597 31.8751 43.6186 32.5544 43.6186 33.4131C43.6186 34.2719 43.3204 35.0135 42.7162 35.5444C42.1041 36.0831 41.288 36.3641 40.2522 36.3876V37.8396H39.342V36.3876C38.6514 36.3173 38.0394 36.1377 37.5058 35.8333C36.9722 35.5288 36.5013 35.1072 36.0933 34.5607L37.286 33.3897C37.6313 33.8269 37.9687 34.1626 38.2983 34.389C38.6357 34.6076 38.981 34.7403 39.342 34.7715V31.6487C38.2434 31.4145 37.4351 31.0476 36.9172 30.5636ZM51.8894 24.9035L50.0375 28.6353C49.9277 28.8617 49.6609 28.9554 49.4333 28.8539L45.6275 27.1207C45.2508 26.949 45.2743 26.4181 45.6667 26.2776L46.7888 25.8794C45.1331 23.7793 42.5906 22.5302 39.8599 22.5302C34.9947 22.5302 31.0319 26.4649 31.0319 31.3052C31.0319 31.9532 30.5062 32.4763 29.8549 32.4763C29.2036 32.4763 28.6778 31.9532 28.6778 31.3052C28.6778 25.1768 33.6921 20.1882 39.8599 20.1882C43.5872 20.1882 47.0321 22.0306 49.0959 25.0597L51.3244 24.2712C51.7089 24.1385 52.0699 24.5366 51.8894 24.9035Z" fill="url(#paint0_linear_544_44)"/>
<path d="M39.3419 27.2454V29.8529C38.7847 29.7436 38.3845 29.5874 38.1413 29.3767C37.898 29.1659 37.7725 28.877 37.7725 28.5023C37.7725 28.1275 37.9059 27.8153 38.1727 27.6045C38.4395 27.3937 38.8318 27.2688 39.3419 27.2454Z" fill="url(#paint1_linear_544_44)"/>
<path d="M41.8684 33.5067C41.8684 33.9439 41.735 34.2718 41.4604 34.4904C41.1858 34.709 40.7856 34.8261 40.252 34.8261V31.9375C40.8326 32.0624 41.2407 32.242 41.4918 32.4918C41.7429 32.7338 41.8684 33.0695 41.8684 33.5067Z" fill="url(#paint2_linear_544_44)"/>
<defs>
<linearGradient id="paint0_linear_544_44" x1="29.1604" y1="110.536" x2="80.0368" y2="50.3068" gradientUnits="userSpaceOnUse">
<stop stop-color="#680FD2"/>
<stop offset="1" stop-color="#EE691E"/>
</linearGradient>
<linearGradient id="paint1_linear_544_44" x1="-15.7288" y1="82.9245" x2="70.5446" y2="-3.78444" gradientUnits="userSpaceOnUse">
<stop stop-color="#680FD2"/>
<stop offset="1" stop-color="#EE691E"/>
</linearGradient>
<linearGradient id="paint2_linear_544_44" x1="-11.5308" y1="85.337" x2="74.0244" y2="-0.657751" gradientUnits="userSpaceOnUse">
<stop stop-color="#680FD2"/>
<stop offset="1" stop-color="#EE691E"/>
</linearGradient>
</defs>
</svg>
